<svg width="512" height="512" viewBox="0 0 512 512" fill="none" xmlns="http://www.w3.org/2000/svg">
<mask id="mask0_568_487" style="mask-type:luminance" maskUnits="userSpaceOnUse" x="0" y="0" width="512" height="512">
<path d="M0 16C0 7.16344 7.16344 0 16 0H496C504.837 0 512 7.16344 512 16V496C512 504.837 504.837 512 496 512H16C7.16344 512 0 504.837 0 496V16Z" fill="white"/>
</mask>
<g mask="url(#mask0_568_487)">
<mask id="mask1_568_487" style="mask-type:luminance" maskUnits="userSpaceOnUse" x="0" y="0" width="512" height="512">
<path d="M68.5475 0H443.452C481.311 0 512 30.6893 512 68.5475V443.452C512 481.311 481.311 512 443.452 512H68.5475C30.6893 512 0 481.311 0 443.452V68.5475C0 30.6893 30.6893 0 68.5475 0Z" fill="white"/>
</mask>
<g mask="url(#mask1_568_487)">
<path d="M0 16C0 7.16344 7.16344 0 16 0H496C504.837 0 512 7.16344 512 16V496C512 504.837 504.837 512 496 512H16C7.16344 512 0 504.837 0 496V16Z" fill="#3B48BF"/>
</g>
</g>
<mask id="mask2_568_487" style="mask-type:luminance" maskUnits="userSpaceOnUse" x="151" y="92" width="210" height="244">
<path d="M151.092 104.983C151.092 98.3556 156.465 92.983 163.092 92.983H348.441C355.069 92.983 360.441 98.3556 360.441 104.983V323.625C360.441 330.253 355.069 335.625 348.441 335.625H163.092C156.465 335.625 151.092 330.253 151.092 323.625V104.983Z" fill="white"/>
</mask>
<g mask="url(#mask2_568_487)">
<path d="M255.715 93.0394C197.952 93.0394 151.092 139.645 151.092 197.151C151.092 234.914 185.659 270.033 186.089 270.468C186.102 270.482 186.099 270.479 186.113 270.492C194.904 279.296 202.033 296.75 202.033 309.172V312.424C202.033 324.855 212.233 335.058 224.667 335.058H286.827C299.262 335.058 309.461 324.855 309.461 312.424V309.172C309.461 296.686 316.591 279.296 325.382 270.492C325.395 270.479 325.392 270.482 325.406 270.468C325.835 270.033 360.403 234.914 360.403 197.151C360.403 139.645 313.543 93.0394 255.715 93.0394ZM252.081 135.821C236.97 135.821 223.455 141.877 213.509 151.758C203.625 161.642 197.569 175.222 197.569 190.268C197.569 194.794 193.873 198.492 189.345 198.492C184.819 198.492 181.12 194.794 181.12 190.268C181.12 151.057 212.873 119.308 252.081 119.308C256.609 119.308 260.305 122.942 260.305 127.532C260.305 132.186 256.67 135.821 252.081 135.821Z" fill="white"/>
</g>
<path d="M309.799 343.535H201.795C197.08 343.535 193.252 347.359 193.252 352.078C193.252 356.796 197.08 360.621 201.795 360.621H309.799C314.517 360.621 318.341 356.796 318.341 352.078C318.277 347.359 314.517 343.535 309.799 343.535Z" fill="white"/>
<path d="M301.18 369.102H210.273C205.555 369.102 201.731 372.926 201.731 377.644C201.731 382.362 205.555 386.186 210.273 386.186H301.18C305.898 386.186 309.722 382.362 309.722 377.644C309.722 372.926 305.898 369.102 301.18 369.102Z" fill="white"/>
<mask id="mask3_568_487" style="mask-type:luminance" maskUnits="userSpaceOnUse" x="218" y="394" width="75" height="18">
<path d="M218.705 402.862C218.705 398.015 222.633 394.086 227.48 394.086H284.029C288.875 394.086 292.804 398.015 292.804 402.862V402.862C292.804 407.708 288.875 411.637 284.029 411.637H227.48C222.633 411.637 218.705 407.708 218.705 402.862V402.862Z" fill="white"/>
</mask>
<g mask="url(#mask3_568_487)">
<path d="M284.159 394.794H227.356C222.638 394.794 218.814 398.618 218.814 403.336C218.814 408.054 222.638 411.878 227.356 411.878H284.159C288.874 411.878 292.701 408.054 292.701 403.336C292.701 398.557 288.877 394.794 284.159 394.794Z" fill="white"/>
</g>
</svg>
